# xmcd
# 
# Track frame offsets:
#     150
#     19425
#     36146
#     50514
#     67216
#     86323
#     105035
#     123645
#     146542
#     166774
#     189062
#     207288
# 
# Disc length: 2979
# 
# Revision: 0
# Processed by: cddbd v1.5.2PL0 Copyright (c) Steve Scherf et al.
# Submitted via: fre:ac v1.0.17
# 
DISCID=9b0ba10c
DTITLE=ray charles - forever
DYEAR=2013
DGENRE=Blues
TTITLE0=A Song For You
TTITLE1=I'm Gonna Move To The Outskirts Of Town
TTITLE2=Ring Of Fire
TTITLE3=Come Rain Or Come Shine
TTITLE4=They Can't Take That Away From Me
TTITLE5=Till There Was You
TTITLE6=Isn't It Wonderful
TTITLE7=None Of Us Are Free
TTITLE8=Imagine
TTITLE9=If I Could
TTITLE10=So Help Me God
TTITLE11=America The Beautiful
EXTD=not in cddb
EXTT0=
EXTT1=
EXTT2=
EXTT3=
EXTT4=
EXTT5=
EXTT6=
EXTT7=
EXTT8=
EXTT9=
EXTT10=
EXTT11=
PLAYORDER=
